<svg width="750" height="500" viewBox="0 0 750 500" fill="none" xmlns="http://www.w3.org/2000/svg">
<g clip-path="url(#clip0_53_10)">
<path d="M606.76 41.9299H143.25V351.98H606.76V41.9299Z" fill="#DBDBDB"/>
<path d="M603.39 45.71H146.62V348.2H603.39V45.71Z" fill="#263238"/>
<path d="M667.12 424H82.8799V445.48H667.12V424Z" fill="#C7C7C7"/>
<path d="M82.8799 424L143.25 351.98H606.75L667.12 424H82.8799Z" fill="#DBDBDB"/>
<path d="M606.73 384.63H145.02L168.69 351.98H583.06L606.73 384.63Z" fill="#263238"/>
<path d="M598.46 373.22H153.29L154.25 371.89H597.5L598.46 373.22Z" fill="#37474F"/>
<path d="M589.81 361.3H161.94L162.9 359.96H588.85L589.81 361.3Z" fill="#37474F"/>
<path d="M303.53 415.9L318.49 392.92H432.22L448.23 415.9H303.53Z" fill="#263238"/>
<path d="M417.85 432.63H333.9L331.82 424H419.94L417.85 432.63Z" fill="#DBDBDB"/>
<path d="M577.92 68.6899H172.09V325.65H577.92V68.6899Z" fill="#37474F"/>
<path d="M577.92 68.6899H172.09V78.5799H577.92V68.6899Z" fill="#FFCB51"/>
<path d="M181.39 73.63C181.39 73.9999 181.28 74.3614 181.075 74.6689C180.869 74.9765 180.577 75.2162 180.236 75.3577C179.894 75.4992 179.518 75.5363 179.155 75.4641C178.792 75.3919 178.459 75.2139 178.198 74.9523C177.936 74.6908 177.758 74.3576 177.686 73.9949C177.614 73.6321 177.651 73.2561 177.792 72.9144C177.934 72.5727 178.173 72.2807 178.481 72.0752C178.789 71.8697 179.15 71.76 179.52 71.76C179.766 71.7587 180.01 71.8062 180.237 71.8997C180.465 71.9932 180.671 72.1309 180.845 72.3048C181.019 72.4787 181.157 72.6854 181.25 72.9129C181.344 73.1403 181.391 73.3841 181.39 73.63V73.63Z" fill="#C7C7C7"/>
<path d="M189 73.63C189 73.9999 188.89 74.3614 188.685 74.6689C188.479 74.9765 188.187 75.2162 187.845 75.3577C187.504 75.4992 187.128 75.5363 186.765 75.4641C186.402 75.3919 186.069 75.2139 185.807 74.9523C185.546 74.6908 185.368 74.3576 185.296 73.9949C185.224 73.6321 185.261 73.2561 185.402 72.9144C185.544 72.5727 185.783 72.2807 186.091 72.0752C186.398 71.8697 186.76 71.76 187.13 71.76C187.376 71.7587 187.619 71.8062 187.847 71.8997C188.074 71.9932 188.281 72.1309 188.455 72.3048C188.629 72.4787 188.767 72.6854 188.86 72.9129C188.954 73.1403 189.001 73.3841 189 73.63Z" fill="white"/>
<path d="M196.67 73.63C196.67 73.9999 196.56 74.3614 196.355 74.6689C196.149 74.9765 195.857 75.2162 195.515 75.3577C195.174 75.4992 194.798 75.5363 194.435 75.4641C194.072 75.3919 193.739 75.2139 193.477 74.9523C193.216 74.6908 193.038 74.3576 192.966 73.9949C192.893 73.6321 192.93 73.2561 193.072 72.9144C193.214 72.5727 193.453 72.2807 193.761 72.0752C194.068 71.8697 194.43 71.76 194.8 71.76C195.046 71.7587 195.289 71.8062 195.517 71.8997C195.744 71.9932 195.951 72.1309 196.125 72.3048C196.299 72.4787 196.437 72.6854 196.53 72.9129C196.624 73.1403 196.671 73.3841 196.67 73.63V73.63Z" fill="#455A64"/>
<path d="M209.44 122.51H198.02V125.98H209.44V122.51Z" fill="#EBEBEB"/>
<path d="M476.01 122.51H222.91V125.98H476.01V122.51Z" fill="#EBEBEB"/>
<path d="M504.72 122.51H483.03V125.98H504.72V122.51Z" fill="#FFCB51"/>
<path d="M209.44 138.92H198.02V142.39H209.44V138.92Z" fill="#EBEBEB"/>
<path d="M319.99 138.92H234.04V142.39H319.99V138.92Z" fill="#A6A6A6"/>
<path d="M512.58 204.58H480.07V208.05H512.58V204.58Z" fill="#A6A6A6"/>
<path d="M305.01 188.16H222.91V191.63H305.01V188.16Z" fill="#A6A6A6"/>
<path d="M291.64 155.34H234.04V158.81H291.64V155.34Z" fill="#FFCB51"/>
<path d="M512.13 155.34H298.03V158.81H512.13V155.34Z" fill="#A6A6A6"/>
<path d="M472.64 204.58H222.91V208.05H472.64V204.58Z" fill="#FFCB51"/>
<path d="M502.3 138.92H325.39V142.39H502.3V138.92Z" fill="#EBEBEB"/>
<path d="M209.44 155.34H198.02V158.81H209.44V155.34Z" fill="#EBEBEB"/>
<path d="M209.44 171.75H198.02V175.22H209.44V171.75Z" fill="#A6A6A6"/>
<path d="M290.39 171.75H222.91V175.22H290.39V171.75Z" fill="#EBEBEB"/>
<path d="M301.52 220.99H234.04V224.46H301.52V220.99Z" fill="#EBEBEB"/>
<path d="M476.09 237.41H295.06V240.88H476.09V237.41Z" fill="#EBEBEB"/>
<path d="M284.76 237.41H234.04V240.88H284.76V237.41Z" fill="#A6A6A6"/>
<path d="M504.71 188.16H309.65V191.63H504.71V188.16Z" fill="#EBEBEB"/>
<path d="M492.23 171.75H297.25V175.22H492.23V171.75Z" fill="#FFCB51"/>
<path d="M209.44 188.16H198.02V191.63H209.44V188.16Z" fill="#EBEBEB"/>
<path d="M209.44 204.58H198.02V208.05H209.44V204.58Z" fill="#EBEBEB"/>
<path d="M209.44 220.99H198.02V224.46H209.44V220.99Z" fill="#A6A6A6"/>
<path d="M209.44 237.41H198.02V240.88H209.44V237.41Z" fill="#EBEBEB"/>
<path d="M209.44 252.31H198.02V255.78H209.44V252.31Z" fill="#EBEBEB"/>
<path d="M356.79 252.31H222.91V255.78H356.79V252.31Z" fill="#EBEBEB"/>
<path d="M205.1 106.43L207.56 100.57C207.588 100.502 207.63 100.441 207.682 100.39C207.734 100.339 207.796 100.299 207.864 100.272C207.932 100.245 208.005 100.231 208.078 100.233C208.151 100.234 208.223 100.25 208.29 100.28C208.356 100.307 208.416 100.347 208.466 100.398C208.516 100.448 208.556 100.508 208.583 100.574C208.61 100.64 208.624 100.711 208.623 100.782C208.623 100.854 208.608 100.924 208.58 100.99L206.11 106.86C206.067 106.959 205.995 107.043 205.905 107.102C205.814 107.16 205.708 107.191 205.6 107.19C205.534 107.204 205.466 107.204 205.4 107.19C205.327 107.164 205.26 107.123 205.204 107.069C205.148 107.016 205.105 106.951 205.076 106.878C205.048 106.806 205.035 106.729 205.039 106.652C205.043 106.574 205.064 106.499 205.1 106.43Z" fill="#FFCB51"/>
<path d="M213.44 104.06L213.37 104.14L210.53 107C210.409 107.116 210.247 107.181 210.08 107.181C209.912 107.181 209.751 107.116 209.63 107C209.57 106.941 209.522 106.871 209.49 106.794C209.457 106.717 209.441 106.634 209.441 106.55C209.441 106.466 209.457 106.383 209.49 106.306C209.522 106.229 209.57 106.159 209.63 106.1L212 103.7L209.62 101.3C209.56 101.241 209.512 101.171 209.48 101.094C209.447 101.017 209.431 100.934 209.431 100.85C209.431 100.766 209.447 100.683 209.48 100.606C209.512 100.529 209.56 100.459 209.62 100.4C209.741 100.284 209.902 100.219 210.07 100.219C210.237 100.219 210.399 100.284 210.52 100.4L213.35 103.26L213.42 103.33C213.438 103.359 213.455 103.389 213.47 103.42C213.467 103.45 213.467 103.48 213.47 103.51C213.47 103.51 213.47 103.51 213.47 103.51V103.58V103.66C213.468 103.69 213.468 103.72 213.47 103.75C213.47 103.75 213.47 103.75 213.47 103.75L213.44 104.06Z" fill="#FFCB51"/>
<path d="M365.79 244.68H364.23V263.41H365.79V244.68Z" fill="#EBEBEB"/>
<path d="M232.79 460.85C232.79 460.85 272.16 443.35 278.64 440.39C291.64 434.46 314.92 416.19 324.88 409.76C330.7 406 326.05 393.29 308.35 395.45C290.65 397.61 257.65 414.85 254.81 411.14C251.97 407.43 297.81 379.89 304.24 377.67C310.67 375.45 331.9 384.09 344.73 379.67C357.56 375.25 350.87 363.85 340.65 359.56C327.11 353.87 301.32 350.24 291.83 350.24C282.34 350.24 253.14 371.48 253.14 371.48C253.14 371.48 292.52 355.99 297.39 353.12C302.26 350.25 325.7 349.8 340.52 344.49C355.34 339.18 345.66 324 320.88 324.22C306.311 324.207 291.768 325.471 277.42 328C270.42 329.06 228.14 357.06 228.14 357.06C228.14 357.06 236.33 355.29 239.65 354.18C242.97 353.07 275.95 332.29 280.53 329.87C297.82 320.72 310.05 308.48 304.53 300.76C300.53 295.15 277.45 302.32 266.21 308.76C251.27 317.31 208.92 348.66 208.92 348.66L262 312.83C262 312.83 257.71 309.27 243.45 312.41C235.02 314.27 200.45 334.93 194.96 339.12C178.36 351.77 133.72 406.21 133.72 406.21L170.23 453.06L232.79 460.85Z" fill="#E5E5E5"/>
<path d="M211.4 347.41C223.92 336.95 234.13 325.16 260.78 312.41C260.87 312.41 260.78 312.14 260.68 312.16C241.68 317.02 223.75 332.47 210.99 346.85C210.57 347.38 210.9 347.82 211.4 347.41Z" fill="#263238"/>
<path d="M230.07 356.81C241.16 350.19 253.99 341.3 267.24 334.81C273.74 331.62 276.54 330.97 285.85 326.9C285.94 326.9 285.85 326.66 285.77 326.68C277.34 328.82 275.95 328.57 266.9 331.99C255.12 336.44 235.79 350.76 229.69 356.38C229.21 356.82 229.48 357.15 230.07 356.81Z" fill="#263238"/>
<path d="M250.56 370.55C262.56 365.71 277.13 357.02 289.51 353.02C292.61 352.02 297.35 351.38 304.44 351.38C304.82 351.38 305.29 350.96 304.39 350.8C298.39 349.7 292.44 349.8 288.74 350.8C276.6 354.19 257.14 365.44 250.26 370.06C249.72 370.44 249.93 370.81 250.56 370.55Z" fill="#263238"/>
<path d="M232.79 460.86L208.32 499.92H27.7202L133.68 406.21L224.18 396.22L232.79 460.86Z" fill="#E5E5E5"/>
<path d="M208.32 499.92L214.79 489.58L79.6602 453.98L27.7202 499.92H208.32Z" fill="#FFCB51"/>
<path opacity="0.1" d="M208.32 499.92L214.79 489.58L79.6602 453.98L27.7202 499.92H208.32Z" fill="black"/>
<path opacity="0.1" d="M28.8901 498.88L33.9701 494.38V499.91H28.8901V498.88Z" fill="black"/>
<path opacity="0.1" d="M207.01 487.53V499.91H201.93V486.19L207.01 487.53Z" fill="black"/>
<path opacity="0.1" d="M172.4 478.41L188.94 482.77H172.4V499.91H167.32V482.77H137.79V499.91H132.71V482.77H103.18V499.91H98.1001V482.77H68.5801V499.91H63.5001V482.77H47.1001L52.8501 477.69H63.5001V468.27L68.5801 463.78V477.69H98.1001V458.84L103.18 460.18V477.69H132.71V467.96L137.79 469.29V477.69H167.32V477.07L169.66 477.69H172.4V478.41Z" fill="black"/>
<path d="M55.9102 470.07L214.79 495.34L229.45 472.73L87.8102 441.33L55.9102 470.07Z" fill="#FFCB51"/>
<path d="M501.44 440.23C501.44 440.23 465.56 422.43 458.83 420.11C445.35 415.45 424.67 395.97 414.13 390.53C407.98 387.35 411.39 374.25 429.22 374.7C447.05 375.15 466.83 389.9 467.71 388.42C470.12 384.42 428.92 365.89 422.32 364.3C415.72 362.71 395.1 368.12 381.9 364.95C368.7 361.78 374.27 349.8 384.03 344.54C396.96 337.54 422.59 336.72 432.03 335.8C441.47 334.88 472.58 353.23 472.58 353.23C472.58 353.23 431.9 341.6 426.77 339.23C421.64 336.86 398.27 338.65 383.01 334.79C367.75 330.93 375.93 314.89 400.61 312.73C415.114 311.329 429.714 311.202 444.24 312.35C451.35 312.73 496.08 336.54 496.08 336.54C496.08 336.54 487.76 335.54 484.35 334.78C480.94 334.02 446.11 316.48 441.35 314.51C423.24 307 409.9 296 414.68 287.81C418.16 281.81 441.78 286.76 453.58 292.08C469.28 299.16 514.44 326.29 514.44 326.29L454.29 294.39C454.29 294.39 457.06 288.68 465.65 289.51C496.34 292.51 521.56 311.77 527.43 315.42C545.17 326.42 594.84 376.32 594.84 376.32L563.78 424L501.44 440.23Z" fill="#E5E5E5"/>
<path d="M515 322.39C501.11 314.15 483.3 303.2 455.58 292.87C455.49 292.87 455.52 292.67 455.58 292.69C474.51 296.9 500.36 309.07 515.24 322.02C515.77 322.41 515.57 322.71 515 322.39Z" fill="#263238"/>
<path d="M494.14 336.4C482.47 330.89 468.84 323.27 455.03 318.08C448.25 315.53 445.41 315.15 435.75 311.99C435.65 311.99 435.7 311.75 435.81 311.77C444.41 313.09 445.76 312.7 455.1 315.24C467.25 318.54 487.87 330.93 494.48 335.94C495 336.33 494.76 336.69 494.14 336.4Z" fill="#263238"/>
<path d="M475.06 352.06C462.68 348.38 447.32 341.13 434.61 338.35C431.43 337.65 418.86 337.16 411.8 337.84C411.42 337.84 410.92 337.51 411.8 337.26C417.7 335.58 431.4 335.4 435.18 336.07C447.58 338.28 468.04 347.61 475.33 351.55C475.9 351.86 475.72 352.25 475.06 352.06Z" fill="#263238"/>
<path d="M722.28 500.08L594.84 376.32L514.69 379.82L501.44 440.23L537.67 500.08H722.28Z" fill="#E5E5E5"/>
<path d="M537.67 500.08L516.05 464.37L627.33 407.87L722.28 500.08H537.67Z" fill="#FFCB51"/>
<path opacity="0.1" d="M537.67 500.08L516.05 464.37L627.33 407.87L722.28 500.08H537.67Z" fill="black"/>
<path opacity="0.1" d="M633.18 413.55H616.18L626.18 408.47H628L632.16 412.47L633.18 413.55ZM663.58 443.08H557.81V443.17L547.98 448.17H668.81L666.71 446.17L663.58 443.08ZM699.22 477.69H524.11L527.19 482.77H704.45L701.32 479.77L699.22 477.69ZM699.22 477.69L696.22 474.8V500.09H701.3V479.73L699.22 477.69ZM663.58 443.08L661.58 441.18V500.09H666.66V446.09L663.58 443.08ZM628 408.47L627.38 407.87L627 408V500.06H632.09V412.51L628 408.47ZM592.47 425.59V500.09H597.55V423L592.47 425.59ZM558 443.08H557.83V500.08H562.91V440.58L558 443.08ZM523.2 460.74V476.18L524.11 477.69L527.19 482.77L528.28 484.58V458.16L523.2 460.74Z" fill="black"/>
<path d="M507.5 461.2L526.79 489.58L661.8 434.74L625.22 402.01L507.5 461.2Z" fill="#FFCB51"/>
</g>
<defs>
<clipPath id="clip0_53_10">
<rect width="750" height="500" fill="white"/>
</clipPath>
</defs>
</svg>
